<svg width="67" height="60" viewBox="0 0 67 60" fill="none" xmlns="http://www.w3.org/2000/svg">
<path d="M31.9048 12.4164V0.535156H0V54.0007H36.2119C35.4674 52.0971 35.0894 50.086 35.0952 48.0601H31.9048V42.1195H36.2119C36.6946 40.7348 37.3933 39.4238 38.2857 38.2284V36.1789H31.9048V30.2383H38.2857V24.2976H31.9048V18.357H57.4286V30.5056C59.6831 30.8312 61.8494 31.5573 63.8095 32.6442V12.4164M12.7619 48.0601H6.38095V42.1195H12.7619M12.7619 36.1789H6.38095V30.2383H12.7619M12.7619 24.2976H6.38095V18.357H12.7619M12.7619 12.4164H6.38095V6.47578H12.7619M25.5238 48.0601H19.1429V42.1195H25.5238M25.5238 36.1789H19.1429V30.2383H25.5238M25.5238 24.2976H19.1429V18.357H25.5238M25.5238 12.4164H19.1429V6.47578H25.5238M44.6667 30.2383H51.0476V24.2976H44.6667M44.6667 24.2976V30.2383H51.0476V24.2976M44.6667 24.2976V30.2383H51.0476V24.2976M57.4286 36.1789V45.0898H67V51.0304H57.4286V59.9414H51.0476V51.0304H41.4762V45.0898H51.0476V36.1789H57.4286Z" fill="white"/>
</svg>
