<svg width="87" height="62" viewBox="0 0 87 62" fill="none" xmlns="http://www.w3.org/2000/svg">
<path d="M79.75 0.75H7.25C3.29875 0.884592 0.145 3.81197 0 7.47961V54.5869C0.145 58.2545 3.29875 61.1819 7.25 61.3165H79.75C83.7012 61.1819 86.855 58.2545 87 54.5869V7.47961C86.855 3.81197 83.7012 0.884592 79.75 0.75ZM79.75 54.5869H7.25V7.47961H79.75V54.5869ZM50.75 47.8573V43.6513C50.75 38.0657 38.6425 35.2392 32.625 35.2392C26.6075 35.2392 14.5 38.0657 14.5 43.6513V47.8573H50.75ZM32.625 14.2092C30.2215 14.2092 27.9164 15.0955 26.2168 16.673C24.5173 18.2506 23.5625 20.3902 23.5625 22.6212C23.5625 23.7259 23.7969 24.8198 24.2523 25.8404C24.7078 26.861 25.3753 27.7883 26.2168 28.5694C27.9164 30.147 30.2215 31.0332 32.625 31.0332C33.8151 31.0332 34.9936 30.8157 36.0931 30.3929C37.1926 29.9702 38.1916 29.3505 39.0332 28.5694C39.8747 27.7883 40.5422 26.861 40.9977 25.8404C41.4531 24.8198 41.6875 23.7259 41.6875 22.6212C41.6875 21.5165 41.4531 20.4227 40.9977 19.4021C40.5422 18.3815 39.8747 17.4542 39.0332 16.673C38.1916 15.8919 37.1926 15.2723 36.0931 14.8495C34.9936 14.4268 33.8151 14.2092 32.625 14.2092ZM50.75 14.2092V17.574H72.5V14.2092H50.75ZM50.75 20.9388V24.3036H72.5V20.9388H50.75ZM50.75 27.6684V31.0332H65.25V27.6684H50.75Z" fill="white"/>
</svg>
