<svg width="75" height="62" viewBox="0 0 75 62" fill="none" xmlns="http://www.w3.org/2000/svg">
<path d="M31.2975 30.8595C36.4975 20.1045 49.985 15.3686 61.425 20.2573C72.865 25.1459 77.9025 37.8258 72.7025 48.5808C69.03 56.2193 60.9375 61.1079 52 61.1079C43.225 61.1079 35.1975 56.3415 31.4275 48.8863H0V42.7756C0.195 39.2924 2.73 36.4509 7.605 34.1593C12.48 31.8678 18.59 30.6762 26 30.554C27.8525 30.554 29.6075 30.7067 31.2975 30.8595ZM26 0C29.64 0.0916619 32.695 1.28327 35.1325 3.57481C37.57 5.86636 38.7725 8.73843 38.7725 12.2216C38.7725 15.7047 37.57 18.5768 35.1325 20.8684C32.695 23.1599 29.64 24.2904 26 24.2904C22.36 24.2904 19.305 23.1599 16.8675 20.8684C14.43 18.5768 13.2275 15.7047 13.2275 12.2216C13.2275 8.73843 14.43 5.86636 16.8675 3.57481C19.305 1.28327 22.36 0.0916619 26 0ZM52 54.9971C56.3098 54.9971 60.443 53.3876 63.4905 50.5226C66.5379 47.6576 68.25 43.7719 68.25 39.7202C68.25 35.6685 66.5379 31.7827 63.4905 28.9177C60.443 26.0527 56.3098 24.4432 52 24.4432C47.6902 24.4432 43.557 26.0527 40.5095 28.9177C37.462 31.7827 35.75 35.6685 35.75 39.7202C35.75 43.7719 37.462 47.6576 40.5095 50.5226C43.557 53.3876 47.6902 54.9971 52 54.9971ZM48.75 30.554H53.625V39.1702L61.555 43.4783L59.1175 47.4503L48.75 41.8284V30.554Z" fill="white"/>
</svg>
