<svg width="72" height="68" viewBox="0 0 72 68" fill="none" xmlns="http://www.w3.org/2000/svg">
<path d="M58 33.6689C56.4087 33.6689 54.8826 33.0821 53.7574 32.0377C52.6321 30.9932 52 29.5767 52 28.0996C52 26.6225 52.6321 25.2059 53.7574 24.1615C54.8826 23.117 56.4087 22.5303 58 22.5303C59.5913 22.5303 61.1174 23.117 62.2426 24.1615C63.3679 25.2059 64 26.6225 64 28.0996C64 29.5767 63.3679 30.9932 62.2426 32.0377C61.1174 33.0821 59.5913 33.6689 58 33.6689ZM46 18.8174C44.4087 18.8174 42.8826 18.2306 41.7574 17.1861C40.6321 16.1417 40 14.7251 40 13.248C40 11.771 40.6321 10.3544 41.7574 9.30992C42.8826 8.26547 44.4087 7.6787 46 7.6787C47.5913 7.6787 49.1174 8.26547 50.2426 9.30992C51.3679 10.3544 52 11.771 52 13.248C52 14.7251 51.3679 16.1417 50.2426 17.1861C49.1174 18.2306 47.5913 18.8174 46 18.8174ZM26 18.8174C24.4087 18.8174 22.8826 18.2306 21.7574 17.1861C20.6321 16.1417 20 14.7251 20 13.248C20 11.771 20.6321 10.3544 21.7574 9.30992C22.8826 8.26547 24.4087 7.6787 26 7.6787C27.5913 7.6787 29.1174 8.26547 30.2426 9.30992C31.3679 10.3544 32 11.771 32 13.248C32 14.7251 31.3679 16.1417 30.2426 17.1861C29.1174 18.2306 27.5913 18.8174 26 18.8174ZM14 33.6689C12.4087 33.6689 10.8826 33.0821 9.75736 32.0377C8.63214 30.9932 8 29.5767 8 28.0996C8 26.6225 8.63214 25.2059 9.75736 24.1615C10.8826 23.117 12.4087 22.5303 14 22.5303C15.5913 22.5303 17.1174 23.117 18.2426 24.1615C19.3679 25.2059 20 26.6225 20 28.0996C20 29.5767 19.3679 30.9932 18.2426 32.0377C17.1174 33.0821 15.5913 33.6689 14 33.6689ZM36 0.25293C26.4522 0.25293 17.2955 3.77353 10.5442 10.0402C3.79285 16.307 0 24.8064 0 33.6689C0 42.5314 3.79285 51.0309 10.5442 57.2976C17.2955 63.5643 26.4522 67.0849 36 67.0849C37.5913 67.0849 39.1174 66.4981 40.2426 65.4537C41.3679 64.4092 42 62.9926 42 61.5156C42 60.0675 41.4 58.768 40.44 57.8027C39.52 56.8002 38.92 55.5007 38.92 54.0898C38.92 52.6127 39.5521 51.1961 40.6774 50.1517C41.8026 49.1072 43.3287 48.5205 44.92 48.5205H52C57.3043 48.5205 62.3914 46.5646 66.1421 43.0831C69.8929 39.6016 72 34.8796 72 29.956C72 13.5451 55.88 0.25293 36 0.25293Z" fill="white"/>
</svg>
