<svg width="28" height="28" viewBox="0 0 28 28" fill="none" xmlns="http://www.w3.org/2000/svg">
<path d="M12.8311 18.6668L18.6644 14.0002L12.8311 9.3335V12.8335H2.33105V15.1668H12.8311V18.6668Z" fill="black"/>
<path d="M15.1654 3.49906C13.7858 3.49524 12.4192 3.76519 11.1448 4.29329C9.87028 4.82138 8.71326 5.59712 7.74072 6.57556L9.39039 8.22523C10.9327 6.6829 12.9837 5.8324 15.1654 5.8324C17.3471 5.8324 19.3981 6.6829 20.9404 8.22523C22.4827 9.76756 23.3332 11.8186 23.3332 14.0002C23.3332 16.1819 22.4827 18.2329 20.9404 19.7752C19.3981 21.3176 17.3471 22.1681 15.1654 22.1681C12.9837 22.1681 10.9327 21.3176 9.39039 19.7752L7.74072 21.4249C9.72289 23.4082 12.3596 24.5014 15.1654 24.5014C17.9712 24.5014 20.6079 23.4082 22.5901 21.4249C24.5734 19.4427 25.6666 16.8061 25.6666 14.0002C25.6666 11.1944 24.5734 8.55773 22.5901 6.57556C21.6175 5.59712 20.4605 4.82138 19.186 4.29329C17.9115 3.76519 16.5449 3.49524 15.1654 3.49906Z" fill="black"/>
</svg>
