<svg width="182" height="182" viewBox="0 0 182 182" fill="none" xmlns="http://www.w3.org/2000/svg">
<g clip-path="url(#clip0_980_498)">
<path d="M109.463 145.951C109.463 126.008 125.57 109.901 145.512 109.901C157.894 109.901 168.742 116.147 175.207 125.57C179.589 114.942 182.11 103.217 182.11 90.9452C182 40.761 141.239 0 91.0548 0C40.761 0 0 40.761 0 91.0548C0 141.349 40.761 182.11 91.0548 182.11C102.998 182.11 114.394 179.699 124.913 175.535C115.489 168.961 109.463 158.223 109.463 145.951Z" fill="#E6E6E6"/>
<path d="M109.463 145.951C109.463 126.008 125.57 109.901 145.512 109.901C156.47 109.901 166.222 114.942 172.796 122.612C176.631 112.75 178.822 102.122 178.822 90.9451C178.713 42.5141 139.486 3.28711 91.0548 3.28711C42.6237 3.28711 3.28717 42.5141 3.28717 91.0547C3.28717 139.486 42.5141 178.822 91.0548 178.822C101.902 178.822 112.312 176.74 121.954 173.125C114.284 166.441 109.463 156.798 109.463 145.951Z" fill="#D2D2D2"/>
<path d="M109.463 145.951C109.463 137.514 112.421 129.953 117.243 123.817C115.709 121.735 116.037 118.996 115.489 116.585C115.27 115.818 115.161 115.051 114.613 114.394C113.517 112.969 111.107 113.079 109.901 111.654C109.134 110.887 108.915 109.682 108.915 108.586C108.915 107.929 108.915 107.162 109.244 106.505C109.682 105.738 110.559 105.409 111.216 104.861C111.874 104.313 112.641 103.765 113.298 103.327C114.832 102.231 116.256 101.135 116.914 99.3823C117.9 96.8621 118.667 93.7941 118.996 91.0548C119.325 88.0963 118.667 84.6996 119.872 81.9603C121.078 79.3305 123.598 78.1252 124.146 75.0572C124.584 72.4275 124.146 69.0307 123.05 66.6201C122.502 65.5244 121.735 64.7574 121.078 63.7712C120.42 62.7851 120.859 61.4702 120.968 60.2649C121.406 56.649 120.639 53.0331 119.872 49.5268C119.653 48.3215 119.325 47.0066 118.886 45.8013C117.9 43.2812 116.037 41.1993 113.846 39.7748C112.641 39.0078 111.326 38.7887 110.23 38.0217C108.915 37.2547 107.6 36.7068 106.285 36.0494C103.217 34.7345 100.149 33.6388 96.9717 32.8718C90.7261 31.3378 83.9326 31.009 78.0157 33.8579C74.9476 35.2824 71.9892 37.9121 71.6604 41.3089C67.2775 40.1036 62.2372 42.0759 59.9362 46.0205C58.0734 49.0885 57.7447 52.7044 57.8543 56.2107C57.9639 59.4979 59.1692 62.3468 59.6075 65.634C59.717 66.5105 59.8266 67.4967 59.3883 68.2637C58.95 68.9211 58.183 69.2499 57.8543 69.9073C57.5256 70.3456 57.5256 71.003 57.5256 71.5509C57.3064 75.6051 57.0873 79.8784 59.2787 83.2752C59.6075 83.7134 59.9362 84.1517 60.3745 84.59C60.7032 84.9187 61.1415 85.0283 61.4702 85.2475C63.3329 86.3432 64.5382 88.3155 65.1957 90.3974C65.8531 92.2601 65.7435 94.342 66.1818 96.2047C66.6201 97.7387 67.0584 99.4919 67.6063 101.026C68.0445 102.341 68.9211 103.108 69.9073 103.984C70.8934 104.971 71.4413 105.957 72.8657 106.395C72.9753 106.724 73.0849 106.943 73.1945 107.162C73.5232 107.929 73.5232 108.696 73.5232 109.463C73.5232 110.887 73.7423 113.079 72.7562 114.284C71.5509 115.709 69.0307 115.27 67.935 116.914C67.3871 117.681 67.3871 118.777 67.168 119.763C66.401 123.707 62.5659 126.337 59.0596 128.309C47.5545 134.993 36.0494 141.677 24.7634 148.8C40.8706 167.208 64.5382 178.932 90.8356 178.932C101.683 178.932 112.093 176.85 121.735 173.234C114.284 166.441 109.463 156.798 109.463 145.951Z" fill="#546F7A"/>
<path d="M145.512 177.836C163.122 177.836 177.398 163.56 177.398 145.951C177.398 128.341 163.122 114.065 145.512 114.065C127.902 114.065 113.627 128.341 113.627 145.951C113.627 163.56 127.902 177.836 145.512 177.836Z" fill="#3597F0"/>
<path d="M148.361 143.102V131.487C148.361 129.844 147.046 128.529 145.403 128.529C143.759 128.529 142.444 129.844 142.444 131.487V143.102H130.83C129.186 143.102 127.871 144.417 127.871 146.06C127.871 147.704 129.186 149.019 130.83 149.019H142.444V160.634C142.444 162.277 143.759 163.592 145.403 163.592C146.17 163.592 146.937 163.263 147.485 162.715C148.033 162.168 148.361 161.51 148.361 160.634V149.019H159.976C160.743 149.019 161.51 148.69 162.058 148.142C162.606 147.594 162.934 146.827 162.934 146.06C162.934 144.417 161.619 143.102 159.976 143.102H148.361Z" fill="#E6E6E6"/>
</g>
<defs>
<clipPath id="clip0_980_498">
<rect width="182" height="182" fill="white"/>
</clipPath>
</defs>
</svg>
