<svg width="447" height="474" viewBox="0 0 447 474" fill="none" xmlns="http://www.w3.org/2000/svg">
<circle cx="216.686" cy="257.314" r="216.686" fill="#3BAE9C"/>
<circle cx="216.968" cy="254.211" r="172.954" fill="#57E0CB"/>
<circle cx="216.686" cy="253.928" r="129.221" fill="#8FDED2"/>
<path d="M312.713 439.152H131.665C114.415 439.152 100.443 425.155 100.443 407.876V37.2648C100.443 20.0032 114.415 5.98828 131.665 5.98828H312.713C329.963 5.98828 343.935 19.9852 343.935 37.2648V407.876C343.917 425.155 329.945 439.152 312.713 439.152Z" fill="#FBFBFB"/>
<path d="M320.42 427.662H139.029C120.915 427.662 106.223 412.944 106.223 394.799V32.8638C106.223 14.7184 120.915 0 139.029 0H320.402C338.515 0 353.208 14.7184 353.208 32.8638V394.799C353.226 412.944 338.533 427.662 320.42 427.662Z" fill="black"/>
<path d="M309.544 404.917H149.905C136.58 404.917 125.795 394.095 125.795 380.766V42.7661C125.795 29.4186 136.598 18.6143 149.905 18.6143H309.544C322.868 18.6143 333.654 29.4366 333.654 42.7661V380.747C333.654 394.095 322.868 404.917 309.544 404.917Z" fill="white"/>
<path d="M251.656 369.041H215.644C178.138 369.041 147.726 338.577 147.726 301.005V272.867C147.726 235.295 178.138 204.831 215.644 204.831H251.674C289.18 204.831 319.592 235.295 319.592 272.867V301.005C319.592 338.577 289.18 369.041 251.656 369.041Z" fill="#C0C0C0"/>
<path d="M251.457 362.458H218.615C183.306 362.458 154.694 333.778 154.694 298.425V275.969C154.694 240.598 183.324 211.937 218.615 211.937H251.457C286.767 211.937 315.378 240.616 315.378 275.969V298.407C315.396 333.778 286.767 362.458 251.457 362.458Z" fill="#9B9B9B"/>
<path d="M308.157 169.568H151.291C148.05 169.568 145.403 166.935 145.403 163.67V58.026C145.403 53.5527 149.022 49.9272 153.488 49.9272H305.979C310.444 49.9272 314.063 53.5527 314.063 58.026V163.67C314.045 166.935 311.416 169.568 308.157 169.568Z" fill="#41D4BD"/>
<path d="M220.146 274.941H209.036V305.19H201.564V274.941H190.616V268.881H220.146V274.941Z" fill="white"/>
<path d="M235.36 305.19C235.036 304.541 234.784 303.729 234.64 302.773C232.894 304.721 230.625 305.695 227.852 305.695C225.205 305.695 223.026 304.937 221.298 303.404C219.569 301.871 218.705 299.941 218.705 297.614C218.705 294.746 219.767 292.564 221.874 291.031C223.999 289.497 227.042 288.722 231.057 288.704H234.37V287.153C234.37 285.908 234.046 284.916 233.416 284.158C232.786 283.419 231.759 283.04 230.391 283.04C229.184 283.04 228.23 283.329 227.546 283.906C226.862 284.483 226.52 285.295 226.52 286.305H219.317C219.317 284.736 219.803 283.293 220.758 281.958C221.712 280.623 223.08 279.577 224.845 278.819C226.61 278.062 228.572 277.683 230.769 277.683C234.082 277.683 236.729 278.513 238.674 280.19C240.618 281.868 241.59 284.213 241.59 287.243V298.949C241.608 301.51 241.969 303.44 242.653 304.757V305.19H235.36ZM229.401 300.176C230.463 300.176 231.435 299.941 232.335 299.472C233.236 299.003 233.902 298.354 234.334 297.56V292.925H231.651C228.05 292.925 226.123 294.169 225.907 296.658L225.889 297.091C225.889 297.993 226.213 298.733 226.844 299.31C227.456 299.887 228.302 300.176 229.401 300.176Z" fill="white"/>
<path d="M271.336 291.951C271.336 296.099 270.4 299.436 268.509 301.943C266.619 304.45 264.08 305.695 260.875 305.695C258.156 305.695 255.959 304.739 254.285 302.845V315.561H247.083V278.206H253.763L254.015 280.858C255.761 278.765 258.03 277.719 260.839 277.719C264.152 277.719 266.745 278.946 268.581 281.417C270.418 283.87 271.336 287.261 271.336 291.59V291.951ZM264.134 291.428C264.134 288.92 263.684 286.972 262.802 285.62C261.919 284.249 260.623 283.581 258.93 283.581C256.68 283.581 255.113 284.447 254.267 286.179V297.236C255.149 299.021 256.716 299.905 258.966 299.905C262.423 299.887 264.134 297.055 264.134 291.428Z" fill="white"/>
<path d="M439.204 394.528L315.468 443.264C309.67 445.555 303.116 442.687 300.829 436.879L237.431 275.338L382.161 218.34L445.56 379.882C447.847 385.69 445.002 392.237 439.204 394.528Z" fill="#D1D1D1"/>
<path d="M438.862 390.74L315.126 439.477C309.328 441.767 302.774 438.899 300.487 433.091L233.416 262.189C230.697 255.244 234.1 247.416 241.032 244.675L360.681 197.561C367.613 194.838 375.427 198.247 378.164 205.191L445.236 376.094C447.505 381.884 444.66 388.449 438.862 390.74Z" fill="white"/>
<path d="M408.702 283.04L288.153 401.4L270.399 356.145L390.948 237.785L408.702 283.04Z" fill="#EDEDED"/>
<path d="M386.105 225.375L264.782 341.769L260.766 331.56L382.107 215.166L386.105 225.375Z" fill="#EDEDED"/>
<path d="M229.724 140.691C247.575 140.691 262.045 126.195 262.045 108.314C262.045 90.4326 247.575 75.937 229.724 75.937C211.874 75.937 197.404 90.4326 197.404 108.314C197.404 126.195 211.874 140.691 229.724 140.691Z" fill="white"/>
<path d="M251.656 94.7496C250.323 93.2165 248 93.0542 246.47 94.4069L226.844 111.831C225.331 113.184 222.99 113.021 221.658 111.488L215.14 103.967C213.825 102.434 211.521 102.271 209.99 103.588C208.46 104.905 208.298 107.213 209.612 108.747L218.543 119.082L219.695 120.417C221.694 122.743 225.205 122.996 227.51 120.976L228.842 119.821L251.295 99.8722C252.808 98.5555 252.952 96.2648 251.656 94.7496Z" fill="black"/>
<path d="M114.307 296.892H113.335C111.805 296.892 110.562 295.648 110.562 294.115V115.51C110.562 113.977 111.805 112.732 113.335 112.732H114.307C115.838 112.732 117.08 113.977 117.08 115.51V294.115C117.08 295.648 115.838 296.892 114.307 296.892Z" fill="#F9FDFD"/>
<path d="M113.335 46.7705H114.307C115.838 46.7705 117.08 48.0151 117.08 49.5482V91.9537C117.08 93.4869 115.838 94.7315 114.307 94.7315H113.335C111.804 94.7315 110.562 93.4869 110.562 91.9537V49.5482C110.544 48.0151 111.786 46.7705 113.335 46.7705Z" fill="#F9FDFD"/>
</svg>
